<svg id="export-svg" width="100%" xmlns="http://www.w3.org/2000/svg" class="classDiagram" style="max-width: 1238.65625px;" viewBox="-8 -8 1238.65625 863" role="graphics-document document" aria-roledescription="class"><style xmlns="http://www.w3.org/1999/xhtml">@import url("https://cdnjs.cloudflare.com/ajax/libs/font-awesome/6.2.0/css/all.min.css"); p {margin: 0;}</style><style>#export-svg{font-family:arial,sans-serif;font-size:14px;fill:#333;}@keyframes edge-animation-frame{from{stroke-dashoffset:0;}}@keyframes dash{to{stroke-dashoffset:0;}}#export-svg .edge-animation-slow{stroke-dasharray:9,5!important;stroke-dashoffset:900;animation:dash 50s linear infinite;stroke-linecap:round;}#export-svg .edge-animation-fast{stroke-dasharray:9,5!important;stroke-dashoffset:900;animation:dash 20s linear infinite;stroke-linecap:round;}#export-svg .error-icon{fill:#ffffff;}#export-svg .error-text{fill:#000000;stroke:#000000;}#export-svg .edge-thickness-normal{stroke-width:1px;}#export-svg .edge-thickness-thick{stroke-width:3.5px;}#export-svg .edge-pattern-solid{stroke-dasharray:0;}#export-svg .edge-thickness-invisible{stroke-width:0;fill:none;}#export-svg .edge-pattern-dashed{stroke-dasharray:3;}#export-svg .edge-pattern-dotted{stroke-dasharray:2;}#export-svg .marker{fill:#000000;stroke:#000000;}#export-svg .marker.cross{stroke:#000000;}#export-svg svg{font-family:arial,sans-serif;font-size:14px;}#export-svg p{margin:0;}#export-svg g.classGroup text{fill:#000000;stroke:none;font-family:arial,sans-serif;font-size:10px;}#export-svg g.classGroup text .title{font-weight:bolder;}#export-svg .nodeLabel,#export-svg .edgeLabel{color:#333;}#export-svg .noteLabel .nodeLabel,#export-svg .noteLabel .edgeLabel{color:#333;}#export-svg .edgeLabel .label rect{fill:#ffffff;}#export-svg .label text{fill:#333;}#export-svg .labelBkg{background:#ffffff;}#export-svg .edgeLabel .label span{background:#ffffff;}#export-svg .classTitle{font-weight:bolder;}#export-svg .node rect,#export-svg .node circle,#export-svg .node ellipse,#export-svg .node polygon,#export-svg .node path{fill:#ffffff;stroke:#000000;stroke-width:1;}#export-svg .divider{stroke:#000000;stroke-width:1;}#export-svg g.clickable{cursor:pointer;}#export-svg g.classGroup rect{fill:#ffffff;stroke:#000000;}#export-svg g.classGroup line{stroke:#000000;stroke-width:1;}#export-svg .classLabel .box{stroke:none;stroke-width:0;fill:#ffffff;opacity:0.5;}#export-svg .classLabel .label{fill:#000000;font-size:10px;}#export-svg .relation{stroke:#000000;stroke-width:1;fill:none;}#export-svg .dashed-line{stroke-dasharray:3;}#export-svg .dotted-line{stroke-dasharray:1 2;}#export-svg #compositionStart,#export-svg .composition{fill:#000000!important;stroke:#000000!important;stroke-width:1;}#export-svg #compositionEnd,#export-svg .composition{fill:#000000!important;stroke:#000000!important;stroke-width:1;}#export-svg #dependencyStart,#export-svg .dependency{fill:#000000!important;stroke:#000000!important;stroke-width:1;}#export-svg #dependencyStart,#export-svg .dependency{fill:#000000!important;stroke:#000000!important;stroke-width:1;}#export-svg #extensionStart,#export-svg .extension{fill:transparent!important;stroke:#000000!important;stroke-width:1;}#export-svg #extensionEnd,#export-svg .extension{fill:transparent!important;stroke:#000000!important;stroke-width:1;}#export-svg #aggregationStart,#export-svg .aggregation{fill:transparent!important;stroke:#000000!important;stroke-width:1;}#export-svg #aggregationEnd,#export-svg .aggregation{fill:transparent!important;stroke:#000000!important;stroke-width:1;}#export-svg #lollipopStart,#export-svg .lollipop{fill:#ffffff!important;stroke:#000000!important;stroke-width:1;}#export-svg #lollipopEnd,#export-svg .lollipop{fill:#ffffff!important;stroke:#000000!important;stroke-width:1;}#export-svg .edgeTerminals{font-size:11px;line-height:initial;}#export-svg .classTitleText{text-anchor:middle;font-size:18px;fill:#333;}#export-svg .edgeLabel{background-color:#E9E9F1;text-align:center;}#export-svg .edgeLabel p{background-color:#E9E9F1;}#export-svg .edgeLabel rect{opacity:0.5;background-color:#E9E9F1;fill:#E9E9F1;}#export-svg .cluster rect{fill:#ffffff;stroke:hsl(0, 0%, 90%);stroke-width:1px;}#export-svg .label-icon{display:inline-block;height:1em;overflow:visible;vertical-align:-0.125em;}#export-svg .node .label-icon path{fill:currentColor;stroke:revert;stroke-width:revert;}#export-svg .node .neo-node{stroke:#000000;}#export-svg [data-look="neo"].node rect,#export-svg [data-look="neo"].cluster rect,#export-svg [data-look="neo"].node polygon{stroke:url(#export-svg-gradient);filter:drop-shadow( 0px 1px 2px rgba(0, 0, 0, 0.25));}#export-svg [data-look="neo"].node path{stroke:url(#export-svg-gradient);stroke-width:1;}#export-svg [data-look="neo"].node .outer-path{filter:drop-shadow( 0px 1px 2px rgba(0, 0, 0, 0.25));}#export-svg [data-look="neo"].node .neo-line path{stroke:#000000;filter:none;}#export-svg [data-look="neo"].node circle{stroke:url(#export-svg-gradient);filter:drop-shadow( 0px 1px 2px rgba(0, 0, 0, 0.25));}#export-svg [data-look="neo"].node circle .state-start{fill:#000000;}#export-svg [data-look="neo"].statediagram-cluster rect{fill:#ffffff;stroke:url(#export-svg-gradient);stroke-width:1;}#export-svg [data-look="neo"].icon-shape .icon{fill:url(#export-svg-gradient);filter:drop-shadow( 0px 1px 2px rgba(0, 0, 0, 0.25));}#export-svg [data-look="neo"].icon-shape .icon-neo path{stroke:url(#export-svg-gradient);filter:drop-shadow( 0px 1px 2px rgba(0, 0, 0, 0.25));}#export-svg :root{--mermaid-font-family:"trebuchet ms",verdana,arial,sans-serif;}</style><g><defs><marker id="export-svg_class-aggregationStart" class="marker aggregation class" refX="18" refY="7" markerWidth="190" markerHeight="240" orient="auto"><path d="M 18,7 L9,13 L1,7 L9,1 Z"/></marker></defs><defs><marker id="export-svg_class-aggregationEnd" class="marker aggregation class" refX="1" refY="7" markerWidth="20" markerHeight="28" orient="auto"><path d="M 18,7 L9,13 L1,7 L9,1 Z"/></marker></defs><defs><marker id="export-svg_class-aggregationStart-margin" class="marker aggregation class" refX="15" refY="7" markerWidth="190" markerHeight="240" orient="auto" markerUnits="userSpaceOnUse"><path d="M 18,7 L9,13 L1,7 L9,1 Z" style="stroke-width: 2;"/></marker></defs><defs><marker id="export-svg_class-aggregationEnd-margin" class="marker aggregation class" refX="1" refY="7" markerWidth="20" markerHeight="28" orient="auto" markerUnits="userSpaceOnUse"><path d="M 18,7 L9,13 L1,7 L9,1 Z" style="stroke-width: 2;"/></marker></defs><defs><marker id="export-svg_class-extensionStart" class="marker extension class" refX="17.5" refY="7" markerWidth="190" markerHeight="240" orient="auto" markerUnits="userSpaceOnUse"><path d="M 1,7 L18,13 V 1 Z"/></marker></defs><defs><marker id="export-svg_class-extensionEnd" class="marker extension class" refX="1" refY="7" markerWidth="20" markerHeight="28" orient="auto"><path d="M 1,1 V 13 L18,7 Z"/></marker></defs><marker id="export-svg_class-extensionStart-margin" class="marker extension class" refX="18" refY="7" markerWidth="20" markerHeight="28" orient="auto" markerUnits="userSpaceOnUse" viewBox="0 0 20 14"><polygon points="10,7 18,13 18,1" style="stroke-width: 2; stroke-dasharray: 0;"/></marker><defs><marker id="export-svg_class-extensionEnd-margin" class="marker extension class" refX="9" refY="7" markerWidth="20" markerHeight="28" orient="auto" markerUnits="userSpaceOnUse" viewBox="0 0 20 14"><polygon points="10,1 10,13 18,7" style="stroke-width: 2; stroke-dasharray: 0;"/></marker></defs><defs><marker id="export-svg_class-compositionStart" class="marker composition class" refX="18" refY="7" markerWidth="190" markerHeight="240" orient="auto"><path d="M 18,7 L9,13 L1,7 L9,1 Z"/></marker></defs><defs><marker id="export-svg_class-compositionEnd" class="marker composition class" refX="1" refY="7" markerWidth="20" markerHeight="28" orient="auto"><path d="M 18,7 L9,13 L1,7 L9,1 Z"/></marker></defs><defs><marker id="export-svg_class-compositionStart-margin" class="marker composition class" refX="15" refY="7" markerWidth="190" markerHeight="240" orient="auto" markerUnits="userSpaceOnUse"><path viewBox="0 0 15 15" d="M 18,7 L9,13 L1,7 L9,1 Z" style="stroke-width: 0px;"/></marker></defs><defs><marker id="export-svg_class-compositionEnd-margin" class="marker composition class" refX="3.5" refY="7" markerWidth="20" markerHeight="28" orient="auto" markerUnits="userSpaceOnUse"><path d="M 18,7 L9,13 L1,7 L9,1 Z" style="stroke-width: 0px;"/></marker></defs><defs><marker id="export-svg_class-dependencyStart" class="marker dependency class" refX="6" refY="7" markerWidth="190" markerHeight="240" orient="auto"><path d="M 5,7 L9,13 L1,7 L9,1 Z"/></marker></defs><defs><marker id="export-svg_class-dependencyEnd" class="marker dependency class" refX="13" refY="7" markerWidth="20" markerHeight="28" orient="auto"><path d="M 18,7 L9,13 L14,7 L9,1 Z"/></marker></defs><defs><marker id="export-svg_class-dependencyStart-margin" class="marker dependency class" refX="4" refY="7" markerWidth="190" markerHeight="240" orient="auto" markerUnits="userSpaceOnUse"><path d="M 5,7 L9,13 L1,7 L9,1 Z" style="stroke-width: 0px;"/></marker></defs><defs><marker id="export-svg_class-dependencyEnd-margin" class="marker dependency class" refX="16" refY="7" markerWidth="20" markerHeight="28" orient="auto" markerUnits="userSpaceOnUse"><path d="M 18,7 L9,13 L14,7 L9,1 Z" style="stroke-width: 0px;"/></marker></defs><defs><marker id="export-svg_class-lollipopStart" class="marker lollipop class" refX="13" refY="7" markerWidth="190" markerHeight="240" orient="auto"><circle fill="transparent" cx="7" cy="7" r="6"/></marker></defs><defs><marker id="export-svg_class-lollipopEnd" class="marker lollipop class" refX="1" refY="7" markerWidth="190" markerHeight="240" orient="auto"><circle fill="transparent" cx="7" cy="7" r="6"/></marker></defs><defs><marker id="export-svg_class-lollipopStart-margin" class="marker lollipop class" refX="13" refY="7" markerWidth="190" markerHeight="240" orient="auto" markerUnits="userSpaceOnUse"><circle fill="transparent" cx="7" cy="7" r="6" stroke-width="2"/></marker></defs><defs><marker id="export-svg_class-lollipopEnd-margin" class="marker lollipop class" refX="1" refY="7" markerWidth="190" markerHeight="240" orient="auto" markerUnits="userSpaceOnUse"><circle fill="transparent" cx="7" cy="7" r="6" stroke-width="2"/></marker></defs></g><defs><filter id="drop-shadow" height="130%" width="130%"><feDropShadow dx="4" dy="4" stdDeviation="0" flood-opacity="0.06" flood-color="#000000"/></filter></defs><defs><filter id="drop-shadow-small" height="150%" width="150%"><feDropShadow dx="2" dy="2" stdDeviation="0" flood-opacity="0.06" flood-color="#000000"/></filter></defs><linearGradient id="export-svg-gradient" gradientUnits="objectBoundingBox" x1="0%" y1="0%" x2="100%" y2="0%"><stop offset="0%" stop-color="#0042eb" stop-opacity="1"/><stop offset="100%" stop-color="#eb0042" stop-opacity="1"/></linearGradient><g class="subgraphs"/><g class="nodes"><g class="node default" id="classId-QualifiedvLEIIssuerCredential-57" data-id="QualifiedvLEIIssuerCredential" data-node="true" data-et="node" data-look="neo" transform="translate(665.0651041666666, 210.5)"><g class="basic label-container outer-path"><path d="M-168.6015625 -130.5 L168.6015625 -130.5 L168.6015625 130.5 L-168.6015625 130.5" stroke="none" stroke-width="0" fill="#ffffff" style=""/><path d="M-168.6015625 -130.5 C-36.487998343933896 -130.5, 95.62556581213221 -130.5, 168.6015625 -130.5 M-168.6015625 -130.5 C-94.90806226690637 -130.5, -21.21456203381274 -130.5, 168.6015625 -130.5 M168.6015625 -130.5 C168.6015625 -45.073005884842715, 168.6015625 40.35398823031457, 168.6015625 130.5 M168.6015625 -130.5 C168.6015625 -55.082139051488426, 168.6015625 20.33572189702315, 168.6015625 130.5 M168.6015625 130.5 C58.93496564824525 130.5, -50.731631203509494 130.5, -168.6015625 130.5 M168.6015625 130.5 C78.11763729529366 130.5, -12.366287909412677 130.5, -168.6015625 130.5 M-168.6015625 130.5 C-168.6015625 36.96502050070302, -168.6015625 -56.56995899859396, -168.6015625 -130.5 M-168.6015625 130.5 C-168.6015625 51.20240070684572, -168.6015625 -28.095198586308555, -168.6015625 -130.5" stroke="#000000" stroke-width="1.3" fill="none" style=""/></g><g class="annotation-group text" transform="translate(0, -106.5)"/><g class="label-group text" transform="translate(-92.609375, -106.5)"><g class="label" style="font-weight: bolder" transform="translate(0,-10.5)"><foreignObject width="185.21875" height="21"><div style="display: table-cell; white-space: normal; line-height: 1.5; max-width: 293px; text-align: center;" xmlns="http://www.w3.org/1999/xhtml"><span class="nodeLabel markdown-node-label" style=""><p>QualifiedvLEIIssuerCredential</p></span></div></foreignObject></g></g><g class="members-group text" transform="translate(-156.6015625, -61.5)"><g class="label" style="" transform="translate(0,-10.5)"><foreignObject width="111.671875" height="21"><div style="display: table-cell; white-space: normal; line-height: 1.5; max-width: 208px; text-align: center;" xmlns="http://www.w3.org/1999/xhtml"><span class="nodeLabel markdown-node-label" style=""><p>+string v : Version</p></span></div></foreignObject></g><g class="label" style="" transform="translate(0,10.5)"><foreignObject width="166.140625" height="21"><div style="display: table-cell; white-space: normal; line-height: 1.5; max-width: 275px; text-align: center;" xmlns="http://www.w3.org/1999/xhtml"><span class="nodeLabel markdown-node-label" style=""><p>+string d : Credential SAID</p></span></div></foreignObject></g><g class="label" style="" transform="translate(0,31.5)"><foreignObject width="191.0625" height="21"><div style="display: table-cell; white-space: normal; line-height: 1.5; max-width: 303px; text-align: center;" xmlns="http://www.w3.org/1999/xhtml"><span class="nodeLabel markdown-node-label" style=""><p>+string u : One time use nonce</p></span></div></foreignObject></g><g class="label" style="" transform="translate(0,52.5)"><foreignObject width="173.90625" height="21"><div style="display: table-cell; white-space: normal; line-height: 1.5; max-width: 281px; text-align: center;" xmlns="http://www.w3.org/1999/xhtml"><span class="nodeLabel markdown-node-label" style=""><p>+string i : GLEIF Issuee AID</p></span></div></foreignObject></g><g class="label" style="" transform="translate(0,73.5)"><foreignObject width="220.59375" height="21"><div style="display: table-cell; white-space: normal; line-height: 1.5; max-width: 363px; text-align: center;" xmlns="http://www.w3.org/1999/xhtml"><span class="nodeLabel markdown-node-label" style=""><p>+string ri : Credential status registry</p></span></div></foreignObject></g><g class="label" style="" transform="translate(0,94.5)"><foreignObject width="152.90625" height="21"><div style="display: table-cell; white-space: normal; line-height: 1.5; max-width: 250px; text-align: center;" xmlns="http://www.w3.org/1999/xhtml"><span class="nodeLabel markdown-node-label" style=""><p>+string s : Schema SAID</p></span></div></foreignObject></g><g class="label" style="" transform="translate(0,115.5)"><foreignObject width="86.78125" height="21"><div style="display: table-cell; white-space: normal; line-height: 1.5; max-width: 179px; text-align: center;" xmlns="http://www.w3.org/1999/xhtml"><span class="nodeLabel markdown-node-label" style=""><p>+a : Attributes</p></span></div></foreignObject></g><g class="label" style="" transform="translate(0,136.5)"><foreignObject width="60.3125" height="21"><div style="display: table-cell; white-space: normal; line-height: 1.5; max-width: 135px; text-align: center;" xmlns="http://www.w3.org/1999/xhtml"><span class="nodeLabel markdown-node-label" style=""><p>+r : Rules</p></span></div></foreignObject></g></g><g class="methods-group text" transform="translate(-156.6015625, 130.5)"/><g class="divider" style=""><path d="M-168.6015625 -85.5 C-85.42199160630459 -85.49975332502956, -2.2424207126091744 -85.4995066500591, 168.6015625 -85.499 M-168.6015625 -85.5 C-88.3825938062011 -85.49976210490726, -8.163625112402201 -85.49952420981452, 168.6015625 -85.499" stroke="#000000" stroke-width="1.3" fill="none" style=""/></g><g class="divider" style=""><path d="M-168.6015625 106.5 C-66.13850261084531 106.50030386153713, 36.324557278309385 106.50060772307427, 168.6015625 106.501 M-168.6015625 106.5 C-84.11204203064514 106.50025055971966, 0.37747843870971565 106.50050111943932, 168.6015625 106.501" stroke="#000000" stroke-width="1.3" fill="none" style=""/></g></g><g class="node default" id="classId-Attributes-58" data-id="Attributes" data-node="true" data-et="node" data-look="neo" transform="translate(315.86067708333337, 543)"><g class="basic label-container outer-path"><path d="M-190.80078125 -99 L190.80078125 -99 L190.80078125 99 L-190.80078125 99" stroke="none" stroke-width="0" fill="#ffffff" style=""/><path d="M-190.80078125 -99 C-82.62665553891338 -99, 25.547470172173234 -99, 190.80078125 -99 M-190.80078125 -99 C-105.14450464190087 -99, -19.488228033801732 -99, 190.80078125 -99 M190.80078125 -99 C190.80078125 -35.37497999758115, 190.80078125 28.2500400048377, 190.80078125 99 M190.80078125 -99 C190.80078125 -55.33979889977846, 190.80078125 -11.679597799556916, 190.80078125 99 M190.80078125 99 C109.19862120643619 99, 27.596461162872373 99, -190.80078125 99 M190.80078125 99 C61.172714988395114 99, -68.45535127320977 99, -190.80078125 99 M-190.80078125 99 C-190.80078125 47.07548443699832, -190.80078125 -4.849031126003354, -190.80078125 -99 M-190.80078125 99 C-190.80078125 47.18061394727347, -190.80078125 -4.638772105453057, -190.80078125 -99" stroke="#000000" stroke-width="1.3" fill="none" style=""/></g><g class="annotation-group text" transform="translate(0, -75)"/><g class="label-group text" transform="translate(-29.5703125, -75)"><g class="label" style="font-weight: bolder" transform="translate(0,-10.5)"><foreignObject width="59.140625" height="21"><div style="display: table-cell; white-space: normal; line-height: 1.5; max-width: 135px; text-align: center;" xmlns="http://www.w3.org/1999/xhtml"><span class="nodeLabel markdown-node-label" style=""><p>Attributes</p></span></div></foreignObject></g></g><g class="members-group text" transform="translate(-178.80078125, -30)"><g class="label" style="" transform="translate(0,-10.5)"><foreignObject width="198.03125" height="21"><div style="display: table-cell; white-space: normal; line-height: 1.5; max-width: 323px; text-align: center;" xmlns="http://www.w3.org/1999/xhtml"><span class="nodeLabel markdown-node-label" style=""><p>+string d : Attributes block SAID</p></span></div></foreignObject></g><g class="label" style="" transform="translate(0,10.5)"><foreignObject width="157.5625" height="21"><div style="display: table-cell; white-space: normal; line-height: 1.5; max-width: 265px; text-align: center;" xmlns="http://www.w3.org/1999/xhtml"><span class="nodeLabel markdown-node-label" style=""><p>+string i : QVI Issuee AID</p></span></div></foreignObject></g><g class="label" style="" transform="translate(0,31.5)"><foreignObject width="187.15625" height="21"><div style="display: table-cell; white-space: normal; line-height: 1.5; max-width: 311px; text-align: center;" xmlns="http://www.w3.org/1999/xhtml"><span class="nodeLabel markdown-node-label" style=""><p>+string dt : Issuance date time</p></span></div></foreignObject></g><g class="label" style="" transform="translate(0,52.5)"><foreignObject width="192.609375" height="21"><div style="display: table-cell; white-space: normal; line-height: 1.5; max-width: 312px; text-align: center;" xmlns="http://www.w3.org/1999/xhtml"><span class="nodeLabel markdown-node-label" style=""><p>+string LEI : LEI of Legal Entity</p></span></div></foreignObject></g></g><g class="methods-group text" transform="translate(-178.80078125, 78)"><g class="label" style="" transform="translate(0,-10.5)"><foreignObject width="328.03125" height="21"><div style="display: table-cell; white-space: normal; line-height: 1.5; max-width: 489px; text-align: center;" xmlns="http://www.w3.org/1999/xhtml"><span class="nodeLabel markdown-node-label" style=""><p>+int gracePeriod : Allocated grace period(default: 90)</p></span></div></foreignObject></g></g><g class="divider" style=""><path d="M-190.80078125 -54 C-113.06408611364094 -53.99979628832066, -35.32739097728188 -53.99959257664132, 190.80078125 -53.999 M-190.80078125 -54 C-87.22549432676009 -53.999728577403495, 16.34979259647983 -53.999457154807, 190.80078125 -53.999" stroke="#000000" stroke-width="1.3" fill="none" style=""/></g><g class="divider" style=""><path d="M-190.80078125 54 C-72.81871044396603 54.00030917606844, 45.16336036206795 54.00061835213689, 190.80078125 54.001 M-190.80078125 54 C-60.58170207690125 54.00034124356913, 69.6373770961975 54.000682487138256, 190.80078125 54.001" stroke="#000000" stroke-width="1.3" fill="none" style=""/></g></g><g class="node default" id="classId-Rules-59" data-id="Rules" data-node="true" data-et="node" data-look="neo" transform="translate(952.9674479166666, 543)"><g class="basic label-container outer-path"><path d="M-147.96484375 -78 L147.96484375 -78 L147.96484375 78 L-147.96484375 78" stroke="none" stroke-width="0" fill="#ffffff" style=""/><path d="M-147.96484375 -78 C-84.35103166534932 -78, -20.737219580698664 -78, 147.96484375 -78 M-147.96484375 -78 C-57.72116699613166 -78, 32.522509757736685 -78, 147.96484375 -78 M147.96484375 -78 C147.96484375 -44.58097688136369, 147.96484375 -11.161953762727379, 147.96484375 78 M147.96484375 -78 C147.96484375 -39.21788610063767, 147.96484375 -0.43577220127534133, 147.96484375 78 M147.96484375 78 C49.735328356355154 78, -48.49418703728969 78, -147.96484375 78 M147.96484375 78 C31.318025342845587 78, -85.32879306430883 78, -147.96484375 78 M-147.96484375 78 C-147.96484375 44.66984120970311, -147.96484375 11.339682419406216, -147.96484375 -78 M-147.96484375 78 C-147.96484375 41.674228443559095, -147.96484375 5.348456887118189, -147.96484375 -78" stroke="#000000" stroke-width="1.3" fill="none" style=""/></g><g class="annotation-group text" transform="translate(0, -54)"/><g class="label-group text" transform="translate(-17.8984375, -54)"><g class="label" style="font-weight: bolder" transform="translate(0,-10.5)"><foreignObject width="35.796875" height="21"><div style="display: table-cell; white-space: normal; line-height: 1.5; max-width: 93px; text-align: center;" xmlns="http://www.w3.org/1999/xhtml"><span class="nodeLabel markdown-node-label" style=""><p>Rules</p></span></div></foreignObject></g></g><g class="members-group text" transform="translate(-135.96484375, -9)"><g class="label" style="" transform="translate(0,-10.5)"><foreignObject width="174.6875" height="21"><div style="display: table-cell; white-space: normal; line-height: 1.5; max-width: 281px; text-align: center;" xmlns="http://www.w3.org/1999/xhtml"><span class="nodeLabel markdown-node-label" style=""><p>+string d : Rules block SAID</p></span></div></foreignObject></g><g class="label" style="" transform="translate(0,10.5)"><foreignObject width="221.359375" height="21"><div style="display: table-cell; white-space: normal; line-height: 1.5; max-width: 337px; text-align: center;" xmlns="http://www.w3.org/1999/xhtml"><span class="nodeLabel markdown-node-label" style=""><p>+UsageDisclaimer usageDisclaimer</p></span></div></foreignObject></g><g class="label" style="" transform="translate(0,31.5)"><foreignObject width="254.03125" height="21"><div style="display: table-cell; white-space: normal; line-height: 1.5; max-width: 384px; text-align: center;" xmlns="http://www.w3.org/1999/xhtml"><span class="nodeLabel markdown-node-label" style=""><p>+IssuanceDisclaimer issuanceDisclaimer</p></span></div></foreignObject></g></g><g class="methods-group text" transform="translate(-135.96484375, 78)"/><g class="divider" style=""><path d="M-147.96484375 -33 C-85.2751940746073 -32.99978816032212, -22.585544399214598 -32.99957632064424, 147.96484375 -32.999 M-147.96484375 -33 C-76.23961681674254 -32.99975762747044, -4.51438988348508 -32.99951525494087, 147.96484375 -32.999" stroke="#000000" stroke-width="1.3" fill="none" style=""/></g><g class="divider" style=""><path d="M-147.96484375 54 C-79.51206613029595 54.00023131433077, -11.059288510591898 54.000462628661545, 147.96484375 54.001 M-147.96484375 54 C-84.05480266986595 54.00021596360142, -20.144761589731914 54.00043192720284, 147.96484375 54.001" stroke="#000000" stroke-width="1.3" fill="none" style=""/></g></g><g class="node default" id="classId-UsageDisclaimer-60" data-id="UsageDisclaimer" data-node="true" data-et="node" data-look="neo" transform="translate(640.140625, 790)"><g class="basic label-container outer-path"><path d="M-157.3515625 -57 L157.3515625 -57 L157.3515625 57 L-157.3515625 57" stroke="none" stroke-width="0" fill="#ffffff" style=""/><path d="M-157.3515625 -57 C-87.49169429427523 -57, -17.63182608855047 -57, 157.3515625 -57 M-157.3515625 -57 C-57.07657376523309 -57, 43.198414969533815 -57, 157.3515625 -57 M157.3515625 -57 C157.3515625 -27.016288419547223, 157.3515625 2.967423160905554, 157.3515625 57 M157.3515625 -57 C157.3515625 -24.6552954254065, 157.3515625 7.689409149187, 157.3515625 57 M157.3515625 57 C90.59615048418917 57, 23.840738468378333 57, -157.3515625 57 M157.3515625 57 C91.44984222823922 57, 25.54812195647844 57, -157.3515625 57 M-157.3515625 57 C-157.3515625 25.844042973679244, -157.3515625 -5.311914052641512, -157.3515625 -57 M-157.3515625 57 C-157.3515625 22.908415105724302, -157.3515625 -11.183169788551396, -157.3515625 -57" stroke="#000000" stroke-width="1.3" fill="none" style=""/></g><g class="annotation-group text" transform="translate(0, -33)"/><g class="label-group text" transform="translate(-52.90625, -33)"><g class="label" style="font-weight: bolder" transform="translate(0,-10.5)"><foreignObject width="105.8125" height="21"><div style="display: table-cell; white-space: normal; line-height: 1.5; max-width: 182px; text-align: center;" xmlns="http://www.w3.org/1999/xhtml"><span class="nodeLabel markdown-node-label" style=""><p>UsageDisclaimer</p></span></div></foreignObject></g></g><g class="members-group text" transform="translate(-145.3515625, 12)"><g class="label" style="" transform="translate(0,-10.5)"><foreignObject width="237.796875" height="21"><div style="display: table-cell; white-space: normal; line-height: 1.5; max-width: 368px; text-align: center;" xmlns="http://www.w3.org/1999/xhtml"><span class="nodeLabel markdown-node-label" style=""><p>+string l : Legal language about usage</p></span></div></foreignObject></g></g><g class="methods-group text" transform="translate(-145.3515625, 57)"/><g class="divider" style=""><path d="M-157.3515625 -12 C-85.50919926604627 -11.999771713854974, -13.666836032092533 -11.999543427709948, 157.3515625 -11.999 M-157.3515625 -12 C-64.73359144100972 -11.99970569732646, 27.884379617980557 -11.99941139465292, 157.3515625 -11.999" stroke="#000000" stroke-width="1.3" fill="none" style=""/></g><g class="divider" style=""><path d="M-157.3515625 33 C-79.18092345177799 33.00024839486118, -1.0102844035559713 33.00049678972236, 157.3515625 33.001 M-157.3515625 33 C-37.273931283554305 33.00038155843294, 82.80369993289139 33.000763116865876, 157.3515625 33.001" stroke="#000000" stroke-width="1.3" fill="none" style=""/></g></g><g class="node default" id="classId-IssuanceDisclaimer-61" data-id="IssuanceDisclaimer" data-node="true" data-et="node" data-look="neo" transform="translate(1002.2890625, 790)"><g class="basic label-container outer-path"><path d="M-169.796875 -57 L169.796875 -57 L169.796875 57 L-169.796875 57" stroke="none" stroke-width="0" fill="#ffffff" style=""/><path d="M-169.796875 -57 C-66.77828850626982 -57, 36.240297987460366 -57, 169.796875 -57 M-169.796875 -57 C-72.71815864258106 -57, 24.36055771483788 -57, 169.796875 -57 M169.796875 -57 C169.796875 -17.737904210686885, 169.796875 21.52419157862623, 169.796875 57 M169.796875 -57 C169.796875 -19.965194050947446, 169.796875 17.06961189810511, 169.796875 57 M169.796875 57 C48.31911432537167 57, -73.15864634925666 57, -169.796875 57 M169.796875 57 C43.239140986170014 57, -83.31859302765997 57, -169.796875 57 M-169.796875 57 C-169.796875 25.071697100642016, -169.796875 -6.856605798715968, -169.796875 -57 M-169.796875 57 C-169.796875 25.04105265997458, -169.796875 -6.917894680050843, -169.796875 -57" stroke="#000000" stroke-width="1.3" fill="none" style=""/></g><g class="annotation-group text" transform="translate(0, -33)"/><g class="label-group text" transform="translate(-60.6875, -33)"><g class="label" style="font-weight: bolder" transform="translate(0,-10.5)"><foreignObject width="121.375" height="21"><div style="display: table-cell; white-space: normal; line-height: 1.5; max-width: 206px; text-align: center;" xmlns="http://www.w3.org/1999/xhtml"><span class="nodeLabel markdown-node-label" style=""><p>IssuanceDisclaimer</p></span></div></foreignObject></g></g><g class="members-group text" transform="translate(-157.796875, 12)"><g class="label" style="" transform="translate(0,-10.5)"><foreignObject width="254.90625" height="21"><div style="display: table-cell; white-space: normal; line-height: 1.5; max-width: 390px; text-align: center;" xmlns="http://www.w3.org/1999/xhtml"><span class="nodeLabel markdown-node-label" style=""><p>+string l : Legal language about issuance</p></span></div></foreignObject></g></g><g class="methods-group text" transform="translate(-157.796875, 57)"/><g class="divider" style=""><path d="M-169.796875 -12 C-76.29813474537292 -11.999724674731928, 17.20060550925416 -11.999449349463854, 169.796875 -11.999 M-169.796875 -12 C-76.8958379161108 -11.999726434785435, 16.005199167778386 -11.999452869570868, 169.796875 -11.999" stroke="#000000" stroke-width="1.3" fill="none" style=""/></g><g class="divider" style=""><path d="M-169.796875 33 C-55.88063451916054 33.000335448577836, 58.035605961678925 33.00067089715568, 169.796875 33.001 M-169.796875 33 C-97.11993509264563 33.00021401141778, -24.442995185291267 33.000428022835564, 169.796875 33.001" stroke="#000000" stroke-width="1.3" fill="none" style=""/></g></g><g class="node undefined" id="note0" data-id="note0" data-node="true" data-et="node" data-look="neo" transform="translate(665.0651041666666, 28.5)"><g class="basic label-container outer-path"><path d="M-353.0546875 -16.5 L353.0546875 -16.5 L353.0546875 16.5 L-353.0546875 16.5" stroke="none" stroke-width="0" fill="#fff5ad" style="fill:#fff5ad !important;stroke:hsl(52.6829268293, 60%, 73.9215686275%) !important"/><path d="M-353.0546875 -16.5 C-132.6442819527164 -16.5, 87.7661235945672 -16.5, 353.0546875 -16.5 M-353.0546875 -16.5 C-124.3837230329973 -16.5, 104.28724143400541 -16.5, 353.0546875 -16.5 M353.0546875 -16.5 C353.0546875 -7.299389077550835, 353.0546875 1.9012218448983305, 353.0546875 16.5 M353.0546875 -16.5 C353.0546875 -4.898096071629247, 353.0546875 6.703807856741506, 353.0546875 16.5 M353.0546875 16.5 C180.85123201467204 16.5, 8.647776529344071 16.5, -353.0546875 16.5 M353.0546875 16.5 C105.42961778894227 16.5, -142.19545192211547 16.5, -353.0546875 16.5 M-353.0546875 16.5 C-353.0546875 9.605118078729461, -353.0546875 2.7102361574589207, -353.0546875 -16.5 M-353.0546875 16.5 C-353.0546875 8.573724577343697, -353.0546875 0.6474491546873935, -353.0546875 -16.5" stroke="hsl(52.6829268293, 60%, 73.9215686275%)" stroke-width="1.3" fill="none" style="fill:#fff5ad !important;stroke:hsl(52.6829268293, 60%, 73.9215686275%) !important"/></g><g class="label noteLabel" style="text-align:left !important;white-space:nowrap !important" transform="translate(-347.0546875, -10.5)"><rect/><foreignObject width="694.109375" height="21"><div style="text-align: center; white-space: break-spaces; display: table; line-height: 1.5; max-width: 200px; width: 200px;" xmlns="http://www.w3.org/1999/xhtml"><span style="text-align:left !important;white-space:nowrap !important" class="nodeLabel"><p>Schema ID: EBfdlu8R27Fbx-ehrqwImnK-8Cm79sqbAQ4MmvEAYqao\nVersion: 1.0.0\nIssued by GLEIF to QVIs</p></span></div></foreignObject></g></g><g class="node undefined" id="note1" data-id="note1" data-node="true" data-et="node" data-look="neo" transform="translate(379.4609375, 392.5)"><g class="basic label-container outer-path"><path d="M-280.3046875 -16.5 L280.3046875 -16.5 L280.3046875 16.5 L-280.3046875 16.5" stroke="none" stroke-width="0" fill="#fff5ad" style="fill:#fff5ad !important;stroke:hsl(52.6829268293, 60%, 73.9215686275%) !important"/><path d="M-280.3046875 -16.5 C-86.53563460563282 -16.5, 107.23341828873436 -16.5, 280.3046875 -16.5 M-280.3046875 -16.5 C-68.19051218888026 -16.5, 143.92366312223947 -16.5, 280.3046875 -16.5 M280.3046875 -16.5 C280.3046875 -7.08565999981009, 280.3046875 2.328680000379819, 280.3046875 16.5 M280.3046875 -16.5 C280.3046875 -7.542837694682399, 280.3046875 1.4143246106352017, 280.3046875 16.5 M280.3046875 16.5 C140.76530854962357 16.5, 1.225929599247138 16.5, -280.3046875 16.5 M280.3046875 16.5 C131.90996120062468 16.5, -16.484765098750643 16.5, -280.3046875 16.5 M-280.3046875 16.5 C-280.3046875 7.784807551565285, -280.3046875 -0.9303848968694304, -280.3046875 -16.5 M-280.3046875 16.5 C-280.3046875 3.8246842490957746, -280.3046875 -8.85063150180845, -280.3046875 -16.5" stroke="hsl(52.6829268293, 60%, 73.9215686275%)" stroke-width="1.3" fill="none" style="fill:#fff5ad !important;stroke:hsl(52.6829268293, 60%, 73.9215686275%) !important"/></g><g class="label noteLabel" style="text-align:left !important;white-space:nowrap !important" transform="translate(-274.3046875, -10.5)"><rect/><foreignObject width="548.609375" height="21"><div style="text-align: center; white-space: break-spaces; display: table; line-height: 1.5; max-width: 200px; width: 200px;" xmlns="http://www.w3.org/1999/xhtml"><span style="text-align:left !important;white-space:nowrap !important" class="nodeLabel"><p>Can be either:\n- SAID string reference\n- Full object with properties\nRequired: i, dt, LEI</p></span></div></foreignObject></g></g><g class="node undefined" id="note2" data-id="note2" data-node="true" data-et="node" data-look="neo" transform="translate(1002.2890625, 392.5)"><g class="basic label-container outer-path"><path d="M-220.3671875 -16.5 L220.3671875 -16.5 L220.3671875 16.5 L-220.3671875 16.5" stroke="none" stroke-width="0" fill="#fff5ad" style="fill:#fff5ad !important;stroke:hsl(52.6829268293, 60%, 73.9215686275%) !important"/><path d="M-220.3671875 -16.5 C-67.6399436214642 -16.5, 85.0873002570716 -16.5, 220.3671875 -16.5 M-220.3671875 -16.5 C-66.0450452057375 -16.5, 88.27709708852501 -16.5, 220.3671875 -16.5 M220.3671875 -16.5 C220.3671875 -9.705980112147937, 220.3671875 -2.911960224295875, 220.3671875 16.5 M220.3671875 -16.5 C220.3671875 -7.237487152506281, 220.3671875 2.0250256949874377, 220.3671875 16.5 M220.3671875 16.5 C128.5161332172427 16.5, 36.66507893448539 16.5, -220.3671875 16.5 M220.3671875 16.5 C62.345639301886706 16.5, -95.67590889622659 16.5, -220.3671875 16.5 M-220.3671875 16.5 C-220.3671875 8.832718983221154, -220.3671875 1.1654379664423082, -220.3671875 -16.5 M-220.3671875 16.5 C-220.3671875 9.816961725188253, -220.3671875 3.133923450376507, -220.3671875 -16.5" stroke="hsl(52.6829268293, 60%, 73.9215686275%)" stroke-width="1.3" fill="none" style="fill:#fff5ad !important;stroke:hsl(52.6829268293, 60%, 73.9215686275%) !important"/></g><g class="label noteLabel" style="text-align:left !important;white-space:nowrap !important" transform="translate(-214.3671875, -10.5)"><rect/><foreignObject width="428.734375" height="21"><div style="text-align: center; white-space: break-spaces; display: table; line-height: 1.5; max-width: 200px; width: 200px;" xmlns="http://www.w3.org/1999/xhtml"><span style="text-align:left !important;white-space:nowrap !important" class="nodeLabel"><p>Can be either:\n- SAID string reference\n- Full object with disclaimers</p></span></div></foreignObject></g></g></g><g class="edges edgePaths"><path d="M665.0651041666666,45L665.0651041666666,80" id="edgeNote1" class="edge-thickness-normal edge-pattern-dotted relation" style="stroke-dasharray: 0 0 2 2 2 2 2 2 2 2 2 2 2 2 2 2 2 2 0; stroke-dashoffset: 0;fill: none;;;fill: none" data-edge="true" data-et="edge" data-id="edgeNote1" data-points="W3sieCI6NjY1LjA2NTEwNDE2NjY2NjYsInkiOjQ1fSx7IngiOjY2NS4wNjUxMDQxNjY2NjY2LCJ5Ijo4MH1d"/><path d="M379.4609375,409L379.4609375,444" id="edgeNote2" class="edge-thickness-normal edge-pattern-dotted relation" style="stroke-dasharray: 0 0 2 2 2 2 2 2 2 2 2 2 2 2 2 2 2 2 0; stroke-dashoffset: 0;fill: none;;;fill: none" data-edge="true" data-et="edge" data-id="edgeNote2" data-points="W3sieCI6Mzc5LjQ2MDkzNzUsInkiOjQwOX0seyJ4IjozNzkuNDYwOTM3NSwieSI6NDQ0fV0="/><path d="M1002.2890625,409L1002.2890625,465" id="edgeNote3" class="edge-thickness-normal edge-pattern-dotted relation" style="stroke-dasharray: 0 0 2 2 2 2 2 2 2 2 2 2 2 2 2 2 2 2 2 2 2 2 2 2 2 2 2 2 2 2 0; stroke-dashoffset: 0;fill: none;;;fill: none" data-edge="true" data-et="edge" data-id="edgeNote3" data-points="W3sieCI6MTAwMi4yODkwNjI1LCJ5Ijo0MDl9LHsieCI6MTAwMi4yODkwNjI1LCJ5Ijo0NjV9XQ=="/><path d="M608.8645833333333,341L608.8645833333333,351.4289321881345Q608.8645833333333,358.5 601.7935155214677,358.5L45.571067811865476,358.5Q38.5,358.5 38.5,365.5710678118655L38.5,419.4289321881345Q38.5,426.5 45.571067811865476,426.5L246.51041666666674,426.5Q252.26041666666674,426.5 252.26041666666674,432.25L252.26041666666674,438" id="id_QualifiedvLEIIssuerCredential_Attributes_1" class="edge-thickness-normal edge-pattern-solid relation" style="stroke-dasharray: 0 0 870.9666748046875 0; stroke-dashoffset: 0;;;;" data-edge="true" data-et="edge" data-id="id_QualifiedvLEIIssuerCredential_Attributes_1" data-points="W3sieCI6NjA4Ljg2NDU4MzMzMzMzMzMsInkiOjM0MX0seyJ4Ijo2MDguODY0NTgzMzMzMzMzMywieSI6MzU4LjV9LHsieCI6MzguNSwieSI6MzU4LjV9LHsieCI6MzguNSwieSI6NDI2LjV9LHsieCI6MjUyLjI2MDQxNjY2NjY2Njc0LCJ5Ijo0MjYuNX0seyJ4IjoyNTIuMjYwNDE2NjY2NjY2NzQsInkiOjQ0NH1d" marker-end="url(#export-svg_class-dependencyEnd-margin)"/><path d="M721.265625,341L721.265625,419.4289321881345Q721.265625,426.5 728.3366928118655,426.5L896.574765521468,426.5Q903.6458333333334,426.5 903.6458333333334,433.5710678118655L903.6458333333334,459" id="id_QualifiedvLEIIssuerCredential_Rules_2" class="edge-thickness-normal edge-pattern-solid relation" style="stroke-dasharray: 0 0 295.0520935058594 0; stroke-dashoffset: 0;;;;" data-edge="true" data-et="edge" data-id="id_QualifiedvLEIIssuerCredential_Rules_2" data-points="W3sieCI6NzIxLjI2NTYyNSwieSI6MzQxfSx7IngiOjcyMS4yNjU2MjUsInkiOjQyNi41fSx7IngiOjkwMy42NDU4MzMzMzMzMzM0LCJ5Ijo0MjYuNX0seyJ4Ijo5MDMuNjQ1ODMzMzMzMzMzNCwieSI6NDY1fV0=" marker-end="url(#export-svg_class-dependencyEnd-margin)"/><path d="M903.6458333333334,621L903.6458333333334,652.4289321881345Q903.6458333333334,659.5 896.574765521468,659.5L647.2116928118655,659.5Q640.140625,659.5 640.140625,666.5710678118655L640.140625,727" id="id_Rules_UsageDisclaimer_3" class="edge-thickness-normal edge-pattern-solid relation" style="stroke-dasharray: 0 0 364.1770935058594 0; stroke-dashoffset: 0;;;;" data-edge="true" data-et="edge" data-id="id_Rules_UsageDisclaimer_3" data-points="W3sieCI6OTAzLjY0NTgzMzMzMzMzMzQsInkiOjYyMX0seyJ4Ijo5MDMuNjQ1ODMzMzMzMzMzNCwieSI6NjU5LjV9LHsieCI6NjQwLjE0MDYyNSwieSI6NjU5LjV9LHsieCI6NjQwLjE0MDYyNSwieSI6NzMzfV0=" marker-end="url(#export-svg_class-dependencyEnd-margin)"/><path d="M1002.2890625,621L1002.2890625,727" id="id_Rules_IssuanceDisclaimer_4" class="edge-thickness-normal edge-pattern-solid relation" style="stroke-dasharray: 0 0 106 0; stroke-dashoffset: 0;;;;" data-edge="true" data-et="edge" data-id="id_Rules_IssuanceDisclaimer_4" data-points="W3sieCI6MTAwMi4yODkwNjI1LCJ5Ijo2MjF9LHsieCI6MTAwMi4yODkwNjI1LCJ5Ijo3MzN9XQ==" marker-end="url(#export-svg_class-dependencyEnd-margin)"/></g><g class="edgeLabels"><g class="edgeLabel"><g class="label" data-id="edgeNote1" transform="translate(0, 0)"><foreignObject width="0" height="0"><div style="display: table-cell; white-space: normal; line-height: 1.5; max-width: 200px; text-align: center;" xmlns="http://www.w3.org/1999/xhtml" class="labelBkg"><span class="edgeLabel"></span></div></foreignObject></g></g><g class="edgeLabel"><g class="label" data-id="edgeNote2" transform="translate(0, 0)"><foreignObject width="0" height="0"><div style="display: table-cell; white-space: normal; line-height: 1.5; max-width: 200px; text-align: center;" xmlns="http://www.w3.org/1999/xhtml" class="labelBkg"><span class="edgeLabel"></span></div></foreignObject></g></g><g class="edgeLabel"><g class="label" data-id="edgeNote3" transform="translate(0, 0)"><foreignObject width="0" height="0"><div style="display: table-cell; white-space: normal; line-height: 1.5; max-width: 200px; text-align: center;" xmlns="http://www.w3.org/1999/xhtml" class="labelBkg"><span class="edgeLabel"></span></div></foreignObject></g></g><g class="edgeLabel" transform="translate(38.078125, 392.5)"><g class="label" data-id="id_QualifiedvLEIIssuerCredential_Attributes_1" transform="translate(-26.078125, -10.5)"><foreignObject width="52.15625" height="21"><div style="display: table-cell; white-space: normal; line-height: 1.5; max-width: 200px; text-align: center;" xmlns="http://www.w3.org/1999/xhtml" class="labelBkg"><span class="edgeLabel"><p>contains</p></span></div></foreignObject></g></g><g class="edgeLabel" transform="translate(720.84375, 392.5)"><g class="label" data-id="id_QualifiedvLEIIssuerCredential_Rules_2" transform="translate(-26.078125, -10.5)"><foreignObject width="52.15625" height="21"><div style="display: table-cell; white-space: normal; line-height: 1.5; max-width: 200px; text-align: center;" xmlns="http://www.w3.org/1999/xhtml" class="labelBkg"><span class="edgeLabel"><p>contains</p></span></div></foreignObject></g></g><g class="edgeLabel" transform="translate(639.9296875, 687.5)"><g class="label" data-id="id_Rules_UsageDisclaimer_3" transform="translate(-11.2890625, -10.5)"><foreignObject width="22.578125" height="21"><div style="display: table-cell; white-space: normal; line-height: 1.5; max-width: 200px; text-align: center;" xmlns="http://www.w3.org/1999/xhtml" class="labelBkg"><span class="edgeLabel"><p>has</p></span></div></foreignObject></g></g><g class="edgeLabel" transform="translate(1002.078125, 687.5)"><g class="label" data-id="id_Rules_IssuanceDisclaimer_4" transform="translate(-11.2890625, -10.5)"><foreignObject width="22.578125" height="21"><div style="display: table-cell; white-space: normal; line-height: 1.5; max-width: 200px; text-align: center;" xmlns="http://www.w3.org/1999/xhtml" class="labelBkg"><span class="edgeLabel"><p>has</p></span></div></foreignObject></g></g><g class="edgeTerminals" transform="translate(249.11702106128416, 419.64339929235445)"><g class="inner" transform="translate(0, 0)"/><foreignObject style="width: 9px; height: 12px;"><div xmlns="http://www.w3.org/1999/xhtml" style="display: inline-block; padding-right: 1px; white-space: nowrap;"><span class="edgeLabel">1</span></div></foreignObject></g><g class="edgeTerminals" transform="translate(913.6458316666666, 442.4999985714286)"><g class="inner" transform="translate(0, 0)"/><foreignObject style="width: 9px; height: 12px;"><div xmlns="http://www.w3.org/1999/xhtml" style="display: inline-block; padding-right: 1px; white-space: nowrap;"><span class="edgeLabel">1</span></div></foreignObject></g><g class="edgeTerminals" transform="translate(650.1406274999998, 710.5000021428572)"><g class="inner" transform="translate(0, 0)"/><foreignObject style="width: 9px; height: 12px;"><div xmlns="http://www.w3.org/1999/xhtml" style="display: inline-block; padding-right: 1px; white-space: nowrap;"><span class="edgeLabel">1</span></div></foreignObject></g><g class="edgeTerminals" transform="translate(1012.28906125, 710.4999989285714)"><g class="inner" transform="translate(0, 0)"/><foreignObject style="width: 9px; height: 12px;"><div xmlns="http://www.w3.org/1999/xhtml" style="display: inline-block; padding-right: 1px; white-space: nowrap;"><span class="edgeLabel">1</span></div></foreignObject></g></g></svg>